<?xml version="1.0" encoding="UTF-8" standalone="no"?>
<svg
   xmlns:dc="http://purl.org/dc/elements/1.1/"
   xmlns:cc="http://creativecommons.org/ns#"
   xmlns:rdf="http://www.w3.org/1999/02/22-rdf-syntax-ns#"
   xmlns:svg="http://www.w3.org/2000/svg"
   xmlns="http://www.w3.org/2000/svg"
   xmlns:sodipodi="http://sodipodi.sourceforge.net/DTD/sodipodi-0.dtd"
   xmlns:inkscape="http://www.inkscape.org/namespaces/inkscape"
   version="1.1"
   id="Layer_1"
   x="0px"
   y="0px"
   width="172pt"
   height="172pt"
   viewBox="0 0 229.33333 229.33333"
   enable-background="new 0 0 147 144"
   xml:space="preserve"
   sodipodi:docname="cohort-shuffle.svg"
   inkscape:version="0.92.2 5c3e80d, 2017-08-06"><metadata
     id="metadata8"><rdf:RDF><cc:Work
         rdf:about=""><dc:format>image/svg+xml</dc:format><dc:type
           rdf:resource="http://purl.org/dc/dcmitype/StillImage" /><dc:title></dc:title></cc:Work></rdf:RDF></metadata><defs
     id="defs6"><clipPath
       id="clipPath64"
       clipPathUnits="userSpaceOnUse"><path
         inkscape:connector-curvature="0"
         id="path62"
         d="M 0,0 H 595.27559 V 841.88976 H 0 Z" /></clipPath><clipPath
       id="clipPath68"
       clipPathUnits="userSpaceOnUse"><path
         inkscape:connector-curvature="0"
         id="path66"
         d="M 80,80 H 515.277 V 761.891 H 80 Z" /></clipPath></defs><sodipodi:namedview
     pagecolor="#ffffff"
     bordercolor="#666666"
     borderopacity="1"
     objecttolerance="10"
     gridtolerance="10"
     guidetolerance="10"
     inkscape:pageopacity="0"
     inkscape:pageshadow="2"
     inkscape:window-width="1440"
     inkscape:window-height="773"
     id="namedview4"
     showgrid="false"
     units="pt"
     fit-margin-left="12"
     fit-margin-top="12"
     fit-margin-right="12"
     fit-margin-bottom="12"
     inkscape:zoom="1.6388889"
     inkscape:cx="44.02591"
     inkscape:cy="105.13528"
     inkscape:window-x="0"
     inkscape:window-y="0"
     inkscape:window-maximized="0"
     inkscape:current-layer="Layer_1" /><g
     id="g76"
     transform="matrix(1.3333333,0,0,1.3333333,-108.91666,-159.4078)"><path
       d="m 126.613,136.691 h 14.172 v 14.172 h -14.172 z"
       style="fill:#440154;fill-opacity:1;fill-rule:evenodd;stroke:#000000;stroke-width:2.26771593;stroke-linecap:butt;stroke-linejoin:miter;stroke-miterlimit:10;stroke-dasharray:none;stroke-opacity:1"
       id="path74"
       inkscape:connector-curvature="0" /></g><g
     id="g80"
     transform="matrix(1.3333333,0,0,1.3333333,-108.91666,-159.4078)"><path
       d="m 140.785,136.691 h 14.172 v 14.172 h -14.172 z"
       style="fill:#46317e;fill-opacity:1;fill-rule:evenodd;stroke:#000000;stroke-width:2.26771593;stroke-linecap:butt;stroke-linejoin:miter;stroke-miterlimit:10;stroke-dasharray:none;stroke-opacity:1"
       id="path78"
       inkscape:connector-curvature="0" /></g><g
     id="g84"
     transform="matrix(1.3333333,0,0,1.3333333,-108.91666,-159.4078)"><path
       d="m 154.957,136.691 h 14.172 v 14.172 h -14.172 z"
       style="fill:#365b8c;fill-opacity:1;fill-rule:evenodd;stroke:#000000;stroke-width:2.26771593;stroke-linecap:butt;stroke-linejoin:miter;stroke-miterlimit:10;stroke-dasharray:none;stroke-opacity:1"
       id="path82"
       inkscape:connector-curvature="0" /></g><g
     id="g88"
     transform="matrix(1.3333333,0,0,1.3333333,-108.91666,-159.4078)"><path
       d="m 169.133,136.691 h 14.172 v 14.172 h -14.172 z"
       style="fill:#277e8e;fill-opacity:1;fill-rule:evenodd;stroke:#000000;stroke-width:2.26771593;stroke-linecap:butt;stroke-linejoin:miter;stroke-miterlimit:10;stroke-dasharray:none;stroke-opacity:1"
       id="path86"
       inkscape:connector-curvature="0" /></g><g
     id="g92"
     transform="matrix(1.3333333,0,0,1.3333333,-108.91666,-159.4078)"><path
       d="m 183.305,136.691 h 14.172 v 14.172 h -14.172 z"
       style="fill:#1fa187;fill-opacity:1;fill-rule:evenodd;stroke:#000000;stroke-width:2.26771593;stroke-linecap:butt;stroke-linejoin:miter;stroke-miterlimit:10;stroke-dasharray:none;stroke-opacity:1"
       id="path90"
       inkscape:connector-curvature="0" /></g><g
     id="g96"
     transform="matrix(1.3333333,0,0,1.3333333,-108.91666,-159.4078)"><path
       d="m 197.477,136.691 h 14.172 v 14.172 h -14.172 z"
       style="fill:#49c16d;fill-opacity:1;fill-rule:evenodd;stroke:#000000;stroke-width:2.26771593;stroke-linecap:butt;stroke-linejoin:miter;stroke-miterlimit:10;stroke-dasharray:none;stroke-opacity:1"
       id="path94"
       inkscape:connector-curvature="0" /></g><g
     id="g100"
     transform="matrix(1.3333333,0,0,1.3333333,-108.91666,-159.4078)"><path
       d="m 211.652,136.691 h 14.172 v 14.172 h -14.172 z"
       style="fill:#9fd938;fill-opacity:1;fill-rule:evenodd;stroke:#000000;stroke-width:2.26771593;stroke-linecap:butt;stroke-linejoin:miter;stroke-miterlimit:10;stroke-dasharray:none;stroke-opacity:1"
       id="path98"
       inkscape:connector-curvature="0" /></g><g
     id="g104"
     transform="matrix(1.3333333,0,0,1.3333333,-108.91666,-159.4078)"><path
       d="m 225.824,136.691 h 14.172 v 14.172 h -14.172 z"
       style="fill:#fde724;fill-opacity:1;fill-rule:evenodd;stroke:#000000;stroke-width:2.26771593;stroke-linecap:butt;stroke-linejoin:miter;stroke-miterlimit:10;stroke-dasharray:none;stroke-opacity:1"
       id="path102"
       inkscape:connector-curvature="0" /></g><g
     id="g108"
     transform="matrix(1.3333333,0,0,1.3333333,-108.91666,-159.4078)"><path
       d="m 140.785,179.211 h 14.172 v 14.172 h -14.172 z"
       style="fill:#46317e;fill-opacity:1;fill-rule:evenodd;stroke:#000000;stroke-width:2.26771593;stroke-linecap:butt;stroke-linejoin:miter;stroke-miterlimit:10;stroke-dasharray:none;stroke-opacity:1"
       id="path106"
       inkscape:connector-curvature="0" /></g><g
     id="g112"
     transform="matrix(1.3333333,0,0,1.3333333,-108.91666,-159.4078)"><path
       d="m 154.957,179.211 h 14.172 v 14.172 h -14.172 z"
       style="fill:#440154;fill-opacity:1;fill-rule:evenodd;stroke:#000000;stroke-width:2.26771593;stroke-linecap:butt;stroke-linejoin:miter;stroke-miterlimit:10;stroke-dasharray:none;stroke-opacity:1"
       id="path110"
       inkscape:connector-curvature="0" /></g><g
     id="g116"
     transform="matrix(1.3333333,0,0,1.3333333,-108.91666,-159.4078)"><path
       d="m 197.477,179.211 h 14.172 v 14.172 h -14.172 z"
       style="fill:#277e8e;fill-opacity:1;fill-rule:evenodd;stroke:#000000;stroke-width:2.26771593;stroke-linecap:butt;stroke-linejoin:miter;stroke-miterlimit:10;stroke-dasharray:none;stroke-opacity:1"
       id="path114"
       inkscape:connector-curvature="0" /></g><g
     id="g120"
     transform="matrix(1.3333333,0,0,1.3333333,-108.91666,-159.4078)"><path
       d="m 126.613,179.211 h 14.172 v 14.172 h -14.172 z"
       style="fill:#365b8c;fill-opacity:1;fill-rule:evenodd;stroke:#000000;stroke-width:2.26771593;stroke-linecap:butt;stroke-linejoin:miter;stroke-miterlimit:10;stroke-dasharray:none;stroke-opacity:1"
       id="path118"
       inkscape:connector-curvature="0" /></g><g
     id="g124"
     transform="matrix(1.3333333,0,0,1.3333333,-108.91666,-159.4078)"><path
       d="m 169.133,179.211 h 14.172 v 14.172 h -14.172 z"
       style="fill:#49c16d;fill-opacity:1;fill-rule:evenodd;stroke:#000000;stroke-width:2.26771593;stroke-linecap:butt;stroke-linejoin:miter;stroke-miterlimit:10;stroke-dasharray:none;stroke-opacity:1"
       id="path122"
       inkscape:connector-curvature="0" /></g><g
     id="g128"
     transform="matrix(1.3333333,0,0,1.3333333,-108.91666,-159.4078)"><path
       d="m 183.305,179.211 h 14.172 v 14.172 h -14.172 z"
       style="fill:#1fa187;fill-opacity:1;fill-rule:evenodd;stroke:#000000;stroke-width:2.26771593;stroke-linecap:butt;stroke-linejoin:miter;stroke-miterlimit:10;stroke-dasharray:none;stroke-opacity:1"
       id="path126"
       inkscape:connector-curvature="0" /></g><g
     id="g132"
     transform="matrix(1.3333333,0,0,1.3333333,-108.91666,-159.4078)"><path
       d="m 225.824,179.211 h 14.172 v 14.172 h -14.172 z"
       style="fill:#fde724;fill-opacity:1;fill-rule:evenodd;stroke:#000000;stroke-width:2.26771593;stroke-linecap:butt;stroke-linejoin:miter;stroke-miterlimit:10;stroke-dasharray:none;stroke-opacity:1"
       id="path130"
       inkscape:connector-curvature="0" /></g><g
     id="g136"
     transform="matrix(1.3333333,0,0,1.3333333,-108.91666,-159.4078)"><path
       d="m 211.652,179.211 h 14.172 v 14.172 h -14.172 z"
       style="fill:#9fd938;fill-opacity:1;fill-rule:evenodd;stroke:#000000;stroke-width:2.26771593;stroke-linecap:butt;stroke-linejoin:miter;stroke-miterlimit:10;stroke-dasharray:none;stroke-opacity:1"
       id="path134"
       inkscape:connector-curvature="0" /></g><g
     id="g140"
     transform="matrix(1.3333333,0,0,1.3333333,-108.91666,-159.4078)"><path
       d="m 197.477,221.73 h 14.172 v 14.172 h -14.172 z"
       style="fill:#49c16d;fill-opacity:1;fill-rule:evenodd;stroke:#000000;stroke-width:2.26771593;stroke-linecap:butt;stroke-linejoin:miter;stroke-miterlimit:10;stroke-dasharray:none;stroke-opacity:1"
       id="path138"
       inkscape:connector-curvature="0" /></g><g
     id="g144"
     transform="matrix(1.3333333,0,0,1.3333333,-108.91666,-159.4078)"><path
       d="m 211.652,221.73 h 14.172 v 14.172 h -14.172 z"
       style="fill:#1fa187;fill-opacity:1;fill-rule:evenodd;stroke:#000000;stroke-width:2.26771593;stroke-linecap:butt;stroke-linejoin:miter;stroke-miterlimit:10;stroke-dasharray:none;stroke-opacity:1"
       id="path142"
       inkscape:connector-curvature="0" /></g><g
     id="g148"
     transform="matrix(1.3333333,0,0,1.3333333,-108.91666,-159.4078)"><path
       d="m 140.785,221.73 h 14.172 v 14.172 h -14.172 z"
       style="fill:#fde724;fill-opacity:1;fill-rule:evenodd;stroke:#000000;stroke-width:2.26771593;stroke-linecap:butt;stroke-linejoin:miter;stroke-miterlimit:10;stroke-dasharray:none;stroke-opacity:1"
       id="path146"
       inkscape:connector-curvature="0" /></g><g
     id="g152"
     transform="matrix(1.3333333,0,0,1.3333333,-108.91666,-159.4078)"><path
       d="m 126.613,221.73 h 14.172 v 14.172 h -14.172 z"
       style="fill:#9fd938;fill-opacity:1;fill-rule:evenodd;stroke:#000000;stroke-width:2.26771593;stroke-linecap:butt;stroke-linejoin:miter;stroke-miterlimit:10;stroke-dasharray:none;stroke-opacity:1"
       id="path150"
       inkscape:connector-curvature="0" /></g><g
     id="g156"
     transform="matrix(1.3333333,0,0,1.3333333,-108.91666,-159.4078)"><path
       d="m 169.133,221.73 h 14.172 v 14.172 h -14.172 z"
       style="fill:#46317e;fill-opacity:1;fill-rule:evenodd;stroke:#000000;stroke-width:2.26771593;stroke-linecap:butt;stroke-linejoin:miter;stroke-miterlimit:10;stroke-dasharray:none;stroke-opacity:1"
       id="path154"
       inkscape:connector-curvature="0" /></g><g
     id="g160"
     transform="matrix(1.3333333,0,0,1.3333333,-108.91666,-159.4078)"><path
       d="m 183.305,221.73 h 14.172 v 14.172 h -14.172 z"
       style="fill:#440154;fill-opacity:1;fill-rule:evenodd;stroke:#000000;stroke-width:2.26771593;stroke-linecap:butt;stroke-linejoin:miter;stroke-miterlimit:10;stroke-dasharray:none;stroke-opacity:1"
       id="path158"
       inkscape:connector-curvature="0" /></g><g
     id="g164"
     transform="matrix(1.3333333,0,0,1.3333333,-108.91666,-159.4078)"><path
       d="m 225.824,221.73 h 14.172 v 14.172 h -14.172 z"
       style="fill:#277e8e;fill-opacity:1;fill-rule:evenodd;stroke:#000000;stroke-width:2.26771593;stroke-linecap:butt;stroke-linejoin:miter;stroke-miterlimit:10;stroke-dasharray:none;stroke-opacity:1"
       id="path162"
       inkscape:connector-curvature="0" /></g><g
     id="g168"
     transform="matrix(1.3333333,0,0,1.3333333,-108.91666,-159.4078)"><path
       d="m 154.957,221.73 h 14.172 v 14.172 h -14.172 z"
       style="fill:#365b8c;fill-opacity:1;fill-rule:evenodd;stroke:#000000;stroke-width:2.26771593;stroke-linecap:butt;stroke-linejoin:miter;stroke-miterlimit:10;stroke-dasharray:none;stroke-opacity:1"
       id="path166"
       inkscape:connector-curvature="0" /></g><g
     id="g172"
     transform="matrix(1.3333333,0,0,1.3333333,-108.91666,-159.4078)"><path
       d="m 133.699,150.867 25.723,25.723"
       style="fill:none;stroke:#000000;stroke-width:1.41732299;stroke-linecap:butt;stroke-linejoin:miter;stroke-miterlimit:10;stroke-dasharray:none;stroke-opacity:1"
       id="path170"
       inkscape:connector-curvature="0" /></g><g
     id="g176"
     transform="matrix(1.3333333,0,0,1.3333333,-108.91666,-159.4078)"><path
       d="m 160.926,178.09 -3.008,-1 1.504,-0.5 0.5,-1.504 z"
       style="fill:#000000;fill-opacity:1;fill-rule:evenodd;stroke:#000000;stroke-width:1.41732299;stroke-linecap:butt;stroke-linejoin:miter;stroke-miterlimit:10;stroke-dasharray:none;stroke-opacity:1"
       id="path174"
       inkscape:connector-curvature="0" /></g><g
     id="g180"
     transform="matrix(1.3333333,0,0,1.3333333,-108.91666,-159.4078)"><path
       d="M 147.871,150.867 V 175.5"
       style="fill:none;stroke:#000000;stroke-width:1.41732299;stroke-linecap:butt;stroke-linejoin:miter;stroke-miterlimit:10;stroke-dasharray:none;stroke-opacity:1"
       id="path178"
       inkscape:connector-curvature="0" /></g><g
     id="g184"
     transform="matrix(1.3333333,0,0,1.3333333,-108.91666,-159.4078)"><path
       d="m 147.871,177.629 -1.418,-2.836 1.418,0.707 1.418,-0.707 z"
       style="fill:#000000;fill-opacity:1;fill-rule:evenodd;stroke:#000000;stroke-width:1.41732299;stroke-linecap:butt;stroke-linejoin:miter;stroke-miterlimit:10;stroke-dasharray:none;stroke-opacity:1"
       id="path182"
       inkscape:connector-curvature="0" /></g><g
     id="g188"
     transform="matrix(1.3333333,0,0,1.3333333,-108.91666,-159.4078)"><path
       d="M 162.047,150.867 136.324,176.59"
       style="fill:none;stroke:#000000;stroke-width:1.41732299;stroke-linecap:butt;stroke-linejoin:miter;stroke-miterlimit:10;stroke-dasharray:none;stroke-opacity:1"
       id="path186"
       inkscape:connector-curvature="0" /></g><g
     id="g192"
     transform="matrix(1.3333333,0,0,1.3333333,-108.91666,-159.4078)"><path
       d="m 134.82,178.09 1,-3.004 0.504,1.504 1.5,0.5 z"
       style="fill:#000000;fill-opacity:1;fill-rule:evenodd;stroke:#000000;stroke-width:1.41732299;stroke-linecap:butt;stroke-linejoin:miter;stroke-miterlimit:10;stroke-dasharray:none;stroke-opacity:1"
       id="path190"
       inkscape:connector-curvature="0" /></g><g
     id="g196"
     transform="matrix(1.3333333,0,0,1.3333333,-108.91666,-159.4078)"><path
       d="m 176.219,150.867 25.722,25.723"
       style="fill:none;stroke:#000000;stroke-width:1.41732299;stroke-linecap:butt;stroke-linejoin:miter;stroke-miterlimit:10;stroke-dasharray:none;stroke-opacity:1"
       id="path194"
       inkscape:connector-curvature="0" /></g><g
     id="g200"
     transform="matrix(1.3333333,0,0,1.3333333,-108.91666,-159.4078)"><path
       d="m 203.445,178.09 -3.007,-1 1.503,-0.5 0.5,-1.504 z"
       style="fill:#000000;fill-opacity:1;fill-rule:evenodd;stroke:#000000;stroke-width:1.41732299;stroke-linecap:butt;stroke-linejoin:miter;stroke-miterlimit:10;stroke-dasharray:none;stroke-opacity:1"
       id="path198"
       inkscape:connector-curvature="0" /></g><g
     id="g204"
     transform="matrix(1.3333333,0,0,1.3333333,-108.91666,-159.4078)"><path
       d="M 190.391,150.867 V 175.5"
       style="fill:none;stroke:#000000;stroke-width:1.41732299;stroke-linecap:butt;stroke-linejoin:miter;stroke-miterlimit:10;stroke-dasharray:none;stroke-opacity:1"
       id="path202"
       inkscape:connector-curvature="0" /></g><g
     id="g208"
     transform="matrix(1.3333333,0,0,1.3333333,-108.91666,-159.4078)"><path
       d="m 190.391,177.629 -1.418,-2.836 1.418,0.707 1.418,-0.707 z"
       style="fill:#000000;fill-opacity:1;fill-rule:evenodd;stroke:#000000;stroke-width:1.41732299;stroke-linecap:butt;stroke-linejoin:miter;stroke-miterlimit:10;stroke-dasharray:none;stroke-opacity:1"
       id="path206"
       inkscape:connector-curvature="0" /></g><g
     id="g212"
     transform="matrix(1.3333333,0,0,1.3333333,-108.91666,-159.4078)"><path
       d="M 204.566,150.867 178.844,176.59"
       style="fill:none;stroke:#000000;stroke-width:1.41732299;stroke-linecap:butt;stroke-linejoin:miter;stroke-miterlimit:10;stroke-dasharray:none;stroke-opacity:1"
       id="path210"
       inkscape:connector-curvature="0" /></g><g
     id="g216"
     transform="matrix(1.3333333,0,0,1.3333333,-108.91666,-159.4078)"><path
       d="m 177.34,178.09 1,-3.004 0.504,1.504 1.5,0.5 z"
       style="fill:#000000;fill-opacity:1;fill-rule:evenodd;stroke:#000000;stroke-width:1.41732299;stroke-linecap:butt;stroke-linejoin:miter;stroke-miterlimit:10;stroke-dasharray:none;stroke-opacity:1"
       id="path214"
       inkscape:connector-curvature="0" /></g><g
     id="g220"
     transform="matrix(1.3333333,0,0,1.3333333,-108.91666,-159.4078)"><path
       d="M 232.91,150.867 V 175.5"
       style="fill:none;stroke:#000000;stroke-width:1.41732299;stroke-linecap:butt;stroke-linejoin:miter;stroke-miterlimit:10;stroke-dasharray:none;stroke-opacity:1"
       id="path218"
       inkscape:connector-curvature="0" /></g><g
     id="g224"
     transform="matrix(1.3333333,0,0,1.3333333,-108.91666,-159.4078)"><path
       d="m 232.91,177.629 -1.414,-2.836 1.414,0.707 1.418,-0.707 z"
       style="fill:#000000;fill-opacity:1;fill-rule:evenodd;stroke:#000000;stroke-width:1.41732299;stroke-linecap:butt;stroke-linejoin:miter;stroke-miterlimit:10;stroke-dasharray:none;stroke-opacity:1"
       id="path222"
       inkscape:connector-curvature="0" /></g><g
     id="g228"
     transform="matrix(1.3333333,0,0,1.3333333,-108.91666,-159.4078)"><path
       d="m 133.699,193.387 25.723,25.722"
       style="fill:none;stroke:#000000;stroke-width:1.41732299;stroke-linecap:butt;stroke-linejoin:miter;stroke-miterlimit:10;stroke-dasharray:none;stroke-opacity:1"
       id="path226"
       inkscape:connector-curvature="0" /></g><g
     id="g232"
     transform="matrix(1.3333333,0,0,1.3333333,-108.91666,-159.4078)"><path
       d="m 160.926,220.609 -3.008,-1 1.504,-0.5 0.5,-1.504 z"
       style="fill:#000000;fill-opacity:1;fill-rule:evenodd;stroke:#000000;stroke-width:1.41732299;stroke-linecap:butt;stroke-linejoin:miter;stroke-miterlimit:10;stroke-dasharray:none;stroke-opacity:1"
       id="path230"
       inkscape:connector-curvature="0" /></g><g
     id="g236"
     transform="matrix(1.3333333,0,0,1.3333333,-108.91666,-159.4078)"><path
       d="m 147.871,193.387 25.723,25.722"
       style="fill:none;stroke:#000000;stroke-width:1.41732299;stroke-linecap:butt;stroke-linejoin:miter;stroke-miterlimit:10;stroke-dasharray:none;stroke-opacity:1"
       id="path234"
       inkscape:connector-curvature="0" /></g><g
     id="g240"
     transform="matrix(1.3333333,0,0,1.3333333,-108.91666,-159.4078)"><path
       d="m 175.098,220.609 -3.008,-1 1.504,-0.5 0.504,-1.504 z"
       style="fill:#000000;fill-opacity:1;fill-rule:evenodd;stroke:#000000;stroke-width:1.41732299;stroke-linecap:butt;stroke-linejoin:miter;stroke-miterlimit:10;stroke-dasharray:none;stroke-opacity:1"
       id="path238"
       inkscape:connector-curvature="0" /></g><g
     id="g244"
     transform="matrix(1.3333333,0,0,1.3333333,-108.91666,-159.4078)"><path
       d="m 162.047,193.387 25.723,25.722"
       style="fill:none;stroke:#000000;stroke-width:1.41732299;stroke-linecap:butt;stroke-linejoin:miter;stroke-miterlimit:10;stroke-dasharray:none;stroke-opacity:1"
       id="path242"
       inkscape:connector-curvature="0" /></g><g
     id="g248"
     transform="matrix(1.3333333,0,0,1.3333333,-108.91666,-159.4078)"><path
       d="m 189.27,220.609 -3.004,-1 1.504,-0.5 0.5,-1.504 z"
       style="fill:#000000;fill-opacity:1;fill-rule:evenodd;stroke:#000000;stroke-width:1.41732299;stroke-linecap:butt;stroke-linejoin:miter;stroke-miterlimit:10;stroke-dasharray:none;stroke-opacity:1"
       id="path246"
       inkscape:connector-curvature="0" /></g><g
     id="g252"
     transform="matrix(1.3333333,0,0,1.3333333,-108.91666,-159.4078)"><path
       d="m 176.219,193.387 25.722,25.722"
       style="fill:none;stroke:#000000;stroke-width:1.41732299;stroke-linecap:butt;stroke-linejoin:miter;stroke-miterlimit:10;stroke-dasharray:none;stroke-opacity:1"
       id="path250"
       inkscape:connector-curvature="0" /></g><g
     id="g256"
     transform="matrix(1.3333333,0,0,1.3333333,-108.91666,-159.4078)"><path
       d="m 203.445,220.609 -3.007,-1 1.503,-0.5 0.5,-1.504 z"
       style="fill:#000000;fill-opacity:1;fill-rule:evenodd;stroke:#000000;stroke-width:1.41732299;stroke-linecap:butt;stroke-linejoin:miter;stroke-miterlimit:10;stroke-dasharray:none;stroke-opacity:1"
       id="path254"
       inkscape:connector-curvature="0" /></g><g
     id="g260"
     transform="matrix(1.3333333,0,0,1.3333333,-108.91666,-159.4078)"><path
       d="m 190.391,193.387 25.722,25.722"
       style="fill:none;stroke:#000000;stroke-width:1.41732299;stroke-linecap:butt;stroke-linejoin:miter;stroke-miterlimit:10;stroke-dasharray:none;stroke-opacity:1"
       id="path258"
       inkscape:connector-curvature="0" /></g><g
     id="g264"
     transform="matrix(1.3333333,0,0,1.3333333,-108.91666,-159.4078)"><path
       d="m 217.617,220.609 -3.008,-1 1.504,-0.5 0.504,-1.504 z"
       style="fill:#000000;fill-opacity:1;fill-rule:evenodd;stroke:#000000;stroke-width:1.41732299;stroke-linecap:butt;stroke-linejoin:miter;stroke-miterlimit:10;stroke-dasharray:none;stroke-opacity:1"
       id="path262"
       inkscape:connector-curvature="0" /></g><g
     id="g268"
     transform="matrix(1.3333333,0,0,1.3333333,-108.91666,-159.4078)"><path
       d="m 204.566,193.387 25.723,25.722"
       style="fill:none;stroke:#000000;stroke-width:1.41732299;stroke-linecap:butt;stroke-linejoin:miter;stroke-miterlimit:10;stroke-dasharray:none;stroke-opacity:1"
       id="path266"
       inkscape:connector-curvature="0" /></g><g
     id="g272"
     transform="matrix(1.3333333,0,0,1.3333333,-108.91666,-159.4078)"><path
       d="m 231.789,220.609 -3.004,-1 1.504,-0.5 0.5,-1.504 z"
       style="fill:#000000;fill-opacity:1;fill-rule:evenodd;stroke:#000000;stroke-width:1.41732299;stroke-linecap:butt;stroke-linejoin:miter;stroke-miterlimit:10;stroke-dasharray:none;stroke-opacity:1"
       id="path270"
       inkscape:connector-curvature="0" /></g><g
     id="g276"
     transform="matrix(1.3333333,0,0,1.3333333,-108.91666,-159.4078)"><path
       d="m 232.91,193.387 v 19.84 h -85.039 v 4.793"
       style="fill:none;stroke:#000000;stroke-width:1.41732299;stroke-linecap:butt;stroke-linejoin:miter;stroke-miterlimit:10;stroke-dasharray:none;stroke-opacity:1"
       id="path274"
       inkscape:connector-curvature="0" /></g><g
     id="g280"
     transform="matrix(1.3333333,0,0,1.3333333,-108.91666,-159.4078)"><path
       d="m 147.871,220.148 -1.418,-2.836 1.418,0.708 1.418,-0.708 z"
       style="fill:#000000;fill-opacity:1;fill-rule:evenodd;stroke:#000000;stroke-width:1.41732299;stroke-linecap:butt;stroke-linejoin:miter;stroke-miterlimit:10;stroke-dasharray:none;stroke-opacity:1"
       id="path278"
       inkscape:connector-curvature="0" /></g><g
     id="g284"
     transform="matrix(1.3333333,0,0,1.3333333,-108.91666,-159.4078)"><path
       d="m 218.738,193.387 v 8.504 h -85.039 v 16.129"
       style="fill:none;stroke:#000000;stroke-width:1.41732299;stroke-linecap:butt;stroke-linejoin:miter;stroke-miterlimit:10;stroke-dasharray:none;stroke-opacity:1"
       id="path282"
       inkscape:connector-curvature="0" /></g><g
     id="g288"
     transform="matrix(1.3333333,0,0,1.3333333,-108.91666,-159.4078)"><path
       d="m 133.699,220.148 -1.418,-2.836 1.418,0.708 1.418,-0.708 z"
       style="fill:#000000;fill-opacity:1;fill-rule:evenodd;stroke:#000000;stroke-width:1.41732299;stroke-linecap:butt;stroke-linejoin:miter;stroke-miterlimit:10;stroke-dasharray:none;stroke-opacity:1"
       id="path286"
       inkscape:connector-curvature="0" /></g><g
     id="g292"
     transform="matrix(1.3333333,0,0,1.3333333,-108.91666,-159.4078)"><path
       d="m 218.738,150.867 14.172,14.172 -11.547,11.551"
       style="fill:none;stroke:#000000;stroke-width:1.41732299;stroke-linecap:butt;stroke-linejoin:miter;stroke-miterlimit:10;stroke-dasharray:none;stroke-opacity:1"
       id="path290"
       inkscape:connector-curvature="0" /></g><g
     id="g296"
     transform="matrix(1.3333333,0,0,1.3333333,-108.91666,-159.4078)"><path
       d="m 219.859,178.09 1,-3.004 0.504,1.504 1.504,0.5 z"
       style="fill:#000000;fill-opacity:1;fill-rule:evenodd;stroke:#000000;stroke-width:1.41732299;stroke-linecap:butt;stroke-linejoin:miter;stroke-miterlimit:10;stroke-dasharray:none;stroke-opacity:1"
       id="path294"
       inkscape:connector-curvature="0" /></g><text
     style="font-variant:normal;font-weight:normal;font-size:10.66666603px;font-family:'Noto Sans';-inkscape-font-specification:NotoSans;writing-mode:lr-tb;fill:#000000;fill-opacity:1;fill-rule:nonzero;stroke:none;stroke-width:1.33333325"
     id="text302"
     x="15.09375"
     y="64.602478"><tspan
       x="15.09375 21.685747 28.245745 34.251083 40.843079 47.403076 50.592407 56.683075"
       y="64.602478"
       sodipodi:role="line"
       id="tspan298"
       style="stroke-width:1.33333325">upend(3)</tspan><tspan
       x="26.421877 31.531206 38.091209 40.832535 47.424545 50.613876 56.704544"
       y="121.29519"
       sodipodi:role="line"
       id="tspan300"
       style="stroke-width:1.33333325">spin(2)</tspan></text>
<text
     style="font-variant:normal;font-weight:normal;font-size:10.66666603px;font-family:'Noto Sans';-inkscape-font-specification:NotoSans;writing-mode:lr-tb;fill:#000000;fill-opacity:1;fill-rule:nonzero;stroke:none;stroke-width:1.33333325"
     id="text306"
     x="27.973955"
     y="177.98793"><tspan
       x="27.973955"
       y="177.98793"
       id="tspan304"
       style="stroke-width:1.33333325">ﬂ</tspan></text>
<text
     style="font-variant:normal;font-weight:normal;font-size:10.66666603px;font-family:'Noto Sans';-inkscape-font-specification:NotoSans;writing-mode:lr-tb;fill:#000000;fill-opacity:1;fill-rule:nonzero;stroke:none;stroke-width:1.33333325"
     id="text310"
     x="34.395294"
     y="177.98793"><tspan
       x="34.395294 40.837967 47.397964 50.587296 56.677963"
       y="177.98793"
       sodipodi:role="line"
       id="tspan308"
       style="stroke-width:1.33333325">op(2)</tspan></text>
<g
     id="g314"
     transform="matrix(1.3333333,0,0,1.3333333,-108.91666,-159.4078)"><path
       d="m 129.445,238.738 v 2.836 h 22.68 v -2.836"
       style="fill:none;stroke:#000000;stroke-width:1.41732299;stroke-linecap:butt;stroke-linejoin:miter;stroke-miterlimit:10;stroke-dasharray:none;stroke-opacity:1"
       id="path312"
       inkscape:connector-curvature="0" /></g><g
     id="g318"
     transform="matrix(1.3333333,0,0,1.3333333,-108.91666,-159.4078)"><path
       d="m 157.793,238.738 v 2.836 h 22.676 v -2.836"
       style="fill:none;stroke:#000000;stroke-width:1.41732299;stroke-linecap:butt;stroke-linejoin:miter;stroke-miterlimit:10;stroke-dasharray:none;stroke-opacity:1"
       id="path316"
       inkscape:connector-curvature="0" /></g><g
     id="g322"
     transform="matrix(1.3333333,0,0,1.3333333,-108.91666,-159.4078)"><path
       d="m 186.141,238.738 v 2.836 h 22.675 v -2.836"
       style="fill:none;stroke:#000000;stroke-width:1.41732299;stroke-linecap:butt;stroke-linejoin:miter;stroke-miterlimit:10;stroke-dasharray:none;stroke-opacity:1"
       id="path320"
       inkscape:connector-curvature="0" /></g><g
     id="g326"
     transform="matrix(1.3333333,0,0,1.3333333,-108.91666,-159.4078)"><path
       d="m 214.484,238.738 v 2.836 h 22.68 v -2.836"
       style="fill:none;stroke:#000000;stroke-width:1.41732299;stroke-linecap:butt;stroke-linejoin:miter;stroke-miterlimit:10;stroke-dasharray:none;stroke-opacity:1"
       id="path324"
       inkscape:connector-curvature="0" /></g><g
     id="g330"
     transform="matrix(1.3333333,0,0,1.3333333,-108.91666,-159.4078)"><path
       d="m 129.445,261.418 v -2.836 h 22.68 v 2.836"
       style="fill:none;stroke:#000000;stroke-width:1.41732299;stroke-linecap:butt;stroke-linejoin:miter;stroke-miterlimit:10;stroke-dasharray:none;stroke-opacity:1"
       id="path328"
       inkscape:connector-curvature="0" /></g><g
     id="g334"
     transform="matrix(1.3333333,0,0,1.3333333,-108.91666,-159.4078)"><path
       d="m 157.793,261.418 v -2.836 h 22.676 v 2.836"
       style="fill:none;stroke:#000000;stroke-width:1.41732299;stroke-linecap:butt;stroke-linejoin:miter;stroke-miterlimit:10;stroke-dasharray:none;stroke-opacity:1"
       id="path332"
       inkscape:connector-curvature="0" /></g><g
     id="g338"
     transform="matrix(1.3333333,0,0,1.3333333,-108.91666,-159.4078)"><path
       d="m 186.141,261.418 v -2.836 h 22.675 v 2.836"
       style="fill:none;stroke:#000000;stroke-width:1.41732299;stroke-linecap:butt;stroke-linejoin:miter;stroke-miterlimit:10;stroke-dasharray:none;stroke-opacity:1"
       id="path336"
       inkscape:connector-curvature="0" /></g><g
     id="g342"
     transform="matrix(1.3333333,0,0,1.3333333,-108.91666,-159.4078)"><path
       d="m 214.484,261.418 v -2.836 h 22.68 v 2.836"
       style="fill:none;stroke:#000000;stroke-width:1.41732299;stroke-linecap:butt;stroke-linejoin:miter;stroke-miterlimit:10;stroke-dasharray:none;stroke-opacity:1"
       id="path340"
       inkscape:connector-curvature="0" /></g><g
     id="g346"
     transform="matrix(1.3333333,0,0,1.3333333,-108.91666,-159.4078)"><path
       d="m 169.133,241.574 -25.164,15.098"
       style="fill:none;stroke:#000000;stroke-width:1.41732299;stroke-linecap:butt;stroke-linejoin:miter;stroke-miterlimit:10;stroke-dasharray:none;stroke-opacity:1"
       id="path344"
       inkscape:connector-curvature="0" /></g><g
     id="g350"
     transform="matrix(1.3333333,0,0,1.3333333,-108.91666,-159.4078)"><path
       d="m 142.145,257.766 1.703,-2.672 0.121,1.578 1.336,0.851 z"
       style="fill:#000000;fill-opacity:1;fill-rule:evenodd;stroke:#000000;stroke-width:1.41732299;stroke-linecap:butt;stroke-linejoin:miter;stroke-miterlimit:10;stroke-dasharray:none;stroke-opacity:1"
       id="path348"
       inkscape:connector-curvature="0" /></g><g
     id="g354"
     transform="matrix(1.3333333,0,0,1.3333333,-108.91666,-159.4078)"><path
       d="m 140.785,241.574 25.164,15.098"
       style="fill:none;stroke:#000000;stroke-width:1.41732299;stroke-linecap:butt;stroke-linejoin:miter;stroke-miterlimit:10;stroke-dasharray:none;stroke-opacity:1"
       id="path352"
       inkscape:connector-curvature="0" /></g><g
     id="g358"
     transform="matrix(1.3333333,0,0,1.3333333,-108.91666,-159.4078)"><path
       d="m 167.773,257.766 -3.16,-0.243 1.336,-0.851 0.121,-1.578 z"
       style="fill:#000000;fill-opacity:1;fill-rule:evenodd;stroke:#000000;stroke-width:1.41732299;stroke-linecap:butt;stroke-linejoin:miter;stroke-miterlimit:10;stroke-dasharray:none;stroke-opacity:1"
       id="path356"
       inkscape:connector-curvature="0" /></g><g
     id="g362"
     transform="matrix(1.3333333,0,0,1.3333333,-108.91666,-159.4078)"><path
       d="m 197.477,241.574 25.168,15.098"
       style="fill:none;stroke:#000000;stroke-width:1.41732299;stroke-linecap:butt;stroke-linejoin:miter;stroke-miterlimit:10;stroke-dasharray:none;stroke-opacity:1"
       id="path360"
       inkscape:connector-curvature="0" /></g><g
     id="g366"
     transform="matrix(1.3333333,0,0,1.3333333,-108.91666,-159.4078)"><path
       d="m 224.465,257.766 -3.16,-0.243 1.34,-0.851 0.121,-1.578 z"
       style="fill:#000000;fill-opacity:1;fill-rule:evenodd;stroke:#000000;stroke-width:1.41732299;stroke-linecap:butt;stroke-linejoin:miter;stroke-miterlimit:10;stroke-dasharray:none;stroke-opacity:1"
       id="path364"
       inkscape:connector-curvature="0" /></g><g
     id="g370"
     transform="matrix(1.3333333,0,0,1.3333333,-108.91666,-159.4078)"><path
       d="M 225.824,241.574 200.66,256.672"
       style="fill:none;stroke:#000000;stroke-width:1.41732299;stroke-linecap:butt;stroke-linejoin:miter;stroke-miterlimit:10;stroke-dasharray:none;stroke-opacity:1"
       id="path368"
       inkscape:connector-curvature="0" /></g><g
     id="g374"
     transform="matrix(1.3333333,0,0,1.3333333,-108.91666,-159.4078)"><path
       d="m 198.836,257.766 1.703,-2.672 0.121,1.578 1.336,0.851 z"
       style="fill:#000000;fill-opacity:1;fill-rule:evenodd;stroke:#000000;stroke-width:1.41732299;stroke-linecap:butt;stroke-linejoin:miter;stroke-miterlimit:10;stroke-dasharray:none;stroke-opacity:1"
       id="path372"
       inkscape:connector-curvature="0" /></g><g
     id="g378"
     transform="matrix(1.3333333,0,0,1.3333333,-108.91666,-159.4078)"><path
       d="m 225.824,264.25 h 14.172 v 14.172 h -14.172 z"
       style="fill:#49c16d;fill-opacity:1;fill-rule:evenodd;stroke:#000000;stroke-width:2.26771593;stroke-linecap:butt;stroke-linejoin:miter;stroke-miterlimit:10;stroke-dasharray:none;stroke-opacity:1"
       id="path376"
       inkscape:connector-curvature="0" /></g><g
     id="g382"
     transform="matrix(1.3333333,0,0,1.3333333,-108.91666,-159.4078)"><path
       d="m 211.652,264.25 h 14.172 v 14.172 h -14.172 z"
       style="fill:#440154;fill-opacity:1;fill-rule:evenodd;stroke:#000000;stroke-width:2.26771593;stroke-linecap:butt;stroke-linejoin:miter;stroke-miterlimit:10;stroke-dasharray:none;stroke-opacity:1"
       id="path380"
       inkscape:connector-curvature="0" /></g><g
     id="g386"
     transform="matrix(1.3333333,0,0,1.3333333,-108.91666,-159.4078)"><path
       d="m 183.305,264.25 h 14.172 v 14.172 h -14.172 z"
       style="fill:#1fa187;fill-opacity:1;fill-rule:evenodd;stroke:#000000;stroke-width:2.26771593;stroke-linecap:butt;stroke-linejoin:miter;stroke-miterlimit:10;stroke-dasharray:none;stroke-opacity:1"
       id="path384"
       inkscape:connector-curvature="0" /></g><g
     id="g390"
     transform="matrix(1.3333333,0,0,1.3333333,-108.91666,-159.4078)"><path
       d="m 197.477,264.25 h 14.172 v 14.172 h -14.172 z"
       style="fill:#277e8e;fill-opacity:1;fill-rule:evenodd;stroke:#000000;stroke-width:2.26771593;stroke-linecap:butt;stroke-linejoin:miter;stroke-miterlimit:10;stroke-dasharray:none;stroke-opacity:1"
       id="path388"
       inkscape:connector-curvature="0" /></g><g
     id="g394"
     transform="matrix(1.3333333,0,0,1.3333333,-108.91666,-159.4078)"><path
       d="m 169.133,264.25 h 14.172 v 14.172 h -14.172 z"
       style="fill:#fde724;fill-opacity:1;fill-rule:evenodd;stroke:#000000;stroke-width:2.26771593;stroke-linecap:butt;stroke-linejoin:miter;stroke-miterlimit:10;stroke-dasharray:none;stroke-opacity:1"
       id="path392"
       inkscape:connector-curvature="0" /></g><g
     id="g398"
     transform="matrix(1.3333333,0,0,1.3333333,-108.91666,-159.4078)"><path
       d="m 154.957,264.25 h 14.172 v 14.172 h -14.172 z"
       style="fill:#9fd938;fill-opacity:1;fill-rule:evenodd;stroke:#000000;stroke-width:2.26771593;stroke-linecap:butt;stroke-linejoin:miter;stroke-miterlimit:10;stroke-dasharray:none;stroke-opacity:1"
       id="path396"
       inkscape:connector-curvature="0" /></g><g
     id="g402"
     transform="matrix(1.3333333,0,0,1.3333333,-108.91666,-159.4078)"><path
       d="m 140.785,264.25 h 14.172 v 14.172 h -14.172 z"
       style="fill:#46317e;fill-opacity:1;fill-rule:evenodd;stroke:#000000;stroke-width:2.26771593;stroke-linecap:butt;stroke-linejoin:miter;stroke-miterlimit:10;stroke-dasharray:none;stroke-opacity:1"
       id="path400"
       inkscape:connector-curvature="0" /></g><g
     id="g406"
     transform="matrix(1.3333333,0,0,1.3333333,-108.91666,-159.4078)"><path
       d="m 126.613,264.25 h 14.172 v 14.172 h -14.172 z"
       style="fill:#365b8c;fill-opacity:1;fill-rule:evenodd;stroke:#000000;stroke-width:2.26771593;stroke-linecap:butt;stroke-linejoin:miter;stroke-miterlimit:10;stroke-dasharray:none;stroke-opacity:1"
       id="path404"
       inkscape:connector-curvature="0" /></g></svg>